<svg preserveAspectRatio="xMidYMid meet" viewBox="0 0 91 50" fill="none" xmlns="http://www.w3.org/2000/svg">
<path d="M33.2669 27.0683V27.3969C33.2669 37.4758 40.1015 46.3451 49.8367 49.0439C52.4555 49.7698 57.7119 49.8661 61.9015 49.9428C60.6946 49.8187 59.5732 49.5855 58.5372 49.3195C53.7322 47.8578 49.7578 44.3238 47.7181 39.6967C47.4623 39.1051 47.2374 38.5075 47.0434 37.9036C46.6791 36.7451 46.4314 35.5321 46.3149 34.2776C45.8249 29.0006 45.7081 26.2937 45.7081 22.7995V22.7518C45.7081 21.9424 45.648 20.6535 45.5278 18.8849C45.4076 17.1163 45.062 15.1679 44.491 13.0396C43.9201 10.8813 42.9584 8.81295 41.6061 6.83454C40.2838 4.85612 38.4207 3.22243 36.0165 1.93346C34.1734 0.94526 31.9152 0.335866 29.2419 0.105276C28.372 0.0495099 27.4794 0 26.6856 0C21.9074 0 17.9407 1.03417 14.7853 3.10252C13.3217 4.07109 12.0295 5.181 10.9086 6.43223V1.43885H0V50H12.4413V25.3597C12.4413 22.3321 12.7718 19.9041 13.433 18.0755C14.1241 16.247 14.9956 14.8681 16.0474 13.9389C17.0992 12.9796 18.2262 12.3351 19.4282 12.0054C20.6303 11.6757 21.7572 11.5108 22.809 11.5108C25.4235 11.5108 27.4369 12.0953 28.8493 13.2644C30.2918 14.4335 31.3285 15.8873 31.9596 17.6259C32.5907 19.3645 32.9663 21.1031 33.0865 22.8417C33.2068 24.5504 33.2669 25.9592 33.2669 27.0683Z" fill="#3C43E6"/>
<path d="M26.6856 0C27.4795 0 28.372 0.0495099 29.242 0.105276C31.9153 0.335866 34.1735 0.94526 36.0166 1.93346C38.4207 3.22243 40.2839 4.85612 41.6061 6.83454C42.9585 8.81295 43.9201 10.8813 44.4911 13.0396C45.0621 15.1679 45.4076 17.1163 45.5278 18.8849C45.6481 20.6535 45.7082 21.9424 45.7082 22.7518V22.7995C45.7082 26.2937 45.825 29.0006 46.3149 34.2776C46.4314 35.5321 46.6791 36.7451 47.0434 37.9036C47.2375 38.5075 47.4624 39.1051 47.7181 39.6967C49.7579 44.3238 53.7322 47.8578 58.5372 49.3195C59.5085 49.5689 60.5548 49.7894 61.6763 49.9183C61.751 49.9269 61.8261 49.9351 61.9015 49.9428C62.1933 49.9489 63.2414 49.944 63.8674 49.9411C63.9589 49.9407 64.0414 49.9403 64.1112 49.94H64.1128C64.3649 49.9389 64.5707 49.9396 64.6669 49.94C69.3598 49.9196 73.2463 48.9452 76.3265 46.8975C77.803 45.9252 79.1043 44.8106 80.2305 43.5536V48.5611H91V0H78.7048V24.6403C78.7048 27.6379 78.3608 30.0659 77.6727 31.9245C77.0146 33.753 76.162 35.1469 75.1149 36.1061C74.0679 37.0354 72.9461 37.6649 71.7495 37.9946C70.5528 38.3243 69.431 38.4892 68.3839 38.4892C65.7813 38.4892 63.762 37.9047 62.3261 36.7356C60.9201 35.5665 59.9029 34.1127 59.2747 32.3741C58.6465 30.6355 58.2725 28.9119 58.1529 27.2032C58.0332 25.4646 57.9734 24.0408 57.9734 22.9317C57.9734 13.2622 51.7868 4.68207 42.6252 1.64521L41.0253 1.11488C36.9214 0.000670314 29.0375 0 26.6856 0Z" fill="#07091C"/>
</svg>
