<svg preserveAspectRatio="xMidYMid meet" viewBox="0 0 256 128" fill="none" xmlns="http://www.w3.org/2000/svg">
<path d="M24.0382 107.826C19.0153 107.826 14.7099 106.705 11.1221 104.464C7.53435 102.222 4.78372 99.1736 2.87023 95.3181C0.956743 91.4626 0 87.114 0 82.2723C0 77.3707 0.986642 72.9922 2.95992 69.1367C4.96311 65.2813 7.77354 62.2477 11.3912 60.036C15.0089 57.8243 19.2844 56.7185 24.2176 56.7185C29.9281 56.7185 34.7118 58.168 38.5687 61.0671C42.4555 63.9363 44.937 67.8665 46.0134 72.8577L33.8149 76.0856C33.0973 73.575 31.8416 71.6174 30.0477 70.2127C28.2837 68.808 26.2805 68.1056 24.0382 68.1056C21.4669 68.1056 19.3591 68.7332 17.7147 69.9885C16.0703 71.2139 14.8594 72.9025 14.0821 75.0544C13.3047 77.1765 12.916 79.5824 12.916 82.2723C12.916 86.4864 13.8429 89.9085 15.6966 92.5386C17.5802 95.1388 20.3607 96.4389 24.0382 96.4389C26.7888 96.4389 28.8817 95.8113 30.3168 94.556C31.7519 93.3007 32.8283 91.5075 33.5458 89.1762L46.0134 91.7765C44.6381 96.9171 42.0369 100.877 38.2099 103.657C34.383 106.436 29.659 107.826 24.0382 107.826Z" fill="#07091C"/>
<path d="M56.4206 128L64.3873 106.1L44.85 58.0634H57.497L70.229 91.0099L82.8806 58.0634H95.079L67.7222 128H56.4206Z" fill="#07091C"/>
<path d="M156.687 106.481V77.8788C156.687 74.6808 155.925 72.2002 154.4 70.4368C152.905 68.6436 150.827 67.747 148.166 67.747C146.462 67.747 144.982 68.1504 143.726 68.9574C142.471 69.7345 141.484 70.8403 140.766 72.2749C140.079 73.6796 139.735 75.3085 139.735 77.1615V106.481H127.536V77.8788C127.536 74.6808 126.774 72.2002 125.249 70.4368C123.754 68.6436 121.676 67.747 119.015 67.747C116.474 67.747 114.426 68.6286 112.871 70.392C111.347 72.1255 110.584 74.382 110.584 77.1615V106.481H98.296V58.0634H109.059V63.3682C110.464 61.6382 112.183 60.2137 114.217 59.0946C116.908 57.6301 119.912 56.8978 123.231 56.8978C127.028 56.8978 130.138 57.7048 132.559 59.3187C134.582 60.6503 136.167 62.3482 137.315 64.4124C138.854 62.1379 140.842 60.3504 143.278 59.0497C145.939 57.6151 148.884 56.8978 152.113 56.8978C157.644 56.8978 161.815 58.5416 164.625 61.8293C167.466 65.087 168.886 69.3609 168.886 74.651V106.481H156.687Z" fill="#07091C"/>
<path d="M177.547 58.0634H188.311V65.8548C188.712 65.137 189.161 64.4527 189.656 63.8018C190.703 62.427 191.988 61.2913 193.513 60.3947C194.679 59.6774 195.95 59.1244 197.325 58.7359C198.7 58.3175 200.121 58.0634 201.586 57.9738C203.051 57.8542 204.516 57.8841 205.981 58.0634V69.4505C204.635 69.0321 203.066 68.8976 201.272 69.0471C199.508 69.1666 197.908 69.5701 196.473 70.2575C195.038 70.915 193.827 71.7967 192.84 72.9025C191.854 73.9785 191.106 75.2637 190.598 76.758C190.09 78.2225 189.836 79.8813 189.836 81.7343V106.481H177.547V58.0634Z" fill="#07091C"/>
<path d="M229.54 107.916C225.743 107.916 222.649 107.273 220.257 105.988C217.865 104.703 215.996 103.074 214.651 101.101C213.335 99.1288 212.393 97.0815 211.825 94.9595C211.257 92.8076 210.913 90.8499 210.794 89.0866C210.674 87.3232 210.615 86.0381 210.615 85.2311V58.0634H222.992V80.9273C222.992 82.0332 223.052 83.4528 223.172 85.1863C223.291 86.8899 223.665 88.6084 224.293 90.3419C224.921 92.0753 225.937 93.5249 227.343 94.6905C228.778 95.8561 230.796 96.4389 233.397 96.4389C234.443 96.4389 235.565 96.2745 236.76 95.9457C237.956 95.617 239.078 94.9894 240.124 94.0628C241.17 93.1064 242.023 91.7167 242.68 89.8935C243.368 88.0405 243.712 85.6196 243.712 82.6309V58.0634H256V106.481H245.237V101.488C244.111 102.742 242.811 103.853 241.335 104.822C238.226 106.885 234.294 107.916 229.54 107.916Z" fill="#07091C"/>
<path d="M133.34 27.0683V27.3969C133.34 37.4758 140.19 46.3451 149.946 49.0439C152.571 49.7698 157.839 49.8661 162.038 49.9428C160.828 49.8187 159.704 49.5855 158.666 49.3195C153.85 47.8578 149.867 44.3238 147.823 39.6967C147.567 39.1051 147.341 38.5075 147.147 37.9036C146.782 36.7451 146.533 35.5321 146.417 34.2776C145.926 29.0006 145.809 26.2937 145.809 22.7995V22.7518C145.809 21.9424 145.748 20.6535 145.628 18.8849C145.507 17.1163 145.161 15.1679 144.589 13.0396C144.017 10.8813 143.053 8.81295 141.698 6.83454C140.372 4.85612 138.505 3.22243 136.096 1.93346C134.249 0.94526 131.985 0.335866 129.306 0.105276C128.434 0.0495099 127.54 0 126.744 0C121.956 0 117.98 1.03417 114.818 3.10252C113.351 4.07109 112.056 5.181 110.933 6.43223V1.43885H100V50H112.469V25.3597C112.469 22.3321 112.8 19.9041 113.462 18.0755C114.155 16.247 115.029 14.8681 116.083 13.9389C117.137 12.9796 118.266 12.3351 119.471 12.0054C120.676 11.6757 121.805 11.5108 122.859 11.5108C125.479 11.5108 127.497 12.0953 128.913 13.2644C130.358 14.4335 131.397 15.8873 132.03 17.6259C132.662 19.3645 133.039 21.1031 133.159 22.8417C133.28 24.5504 133.34 25.9592 133.34 27.0683Z" fill="#3C43E6"/>
<path fill-rule="evenodd" clip-rule="evenodd" d="M73.0447 51.1972C68.0938 51.1972 63.7245 50.1362 59.9368 48.0141C56.1789 45.8623 53.2262 42.9183 51.0789 39.1824C48.9613 35.4166 47.9026 31.1128 47.9026 26.271C47.9026 20.981 48.9464 16.3783 51.0341 12.4631C53.1219 8.5478 55.9999 5.51423 59.6684 3.36233C63.3368 1.18055 67.557 0.0896606 72.3289 0.0896606C77.3991 0.0896606 81.7087 1.28516 85.2579 3.67615C88.807 6.06714 91.4315 9.42948 93.1315 13.7632C94.8316 18.0968 95.428 23.1926 94.921 29.0506H60.9953C61.3755 31.9565 62.2753 34.3176 63.6947 36.1339C65.6631 38.5847 68.5412 39.81 72.3289 39.81C74.7149 39.81 76.7578 39.287 78.4578 38.241C80.1578 37.1949 81.4552 35.6856 82.35 33.713L94.5184 37.2098C92.6991 41.6332 89.821 45.0702 85.8842 47.521C81.9771 49.9718 77.6973 51.1972 73.0447 51.1972ZM80.5157 13.9425C81.5557 15.3583 82.2536 17.3757 82.6094 19.9947H61.3156C61.7898 17.7584 62.5828 15.9204 63.6947 14.4805C65.6631 11.94 68.7201 10.6698 72.8657 10.6698C76.4148 10.6698 78.9649 11.7607 80.5157 13.9425Z" fill="#3C43E6"/>
<path d="M0 1.43459L17.5369 49.8522H29.7053L47.2421 1.43459H35.0737L23.6211 34.9683L12.1684 1.43459H0Z" fill="#3C43E6"/>
<path fill-rule="evenodd" clip-rule="evenodd" d="M233.949 51.1972C228.998 51.1972 224.629 50.1362 220.841 48.0141C217.083 45.8623 214.131 42.9183 211.983 39.1824C209.866 35.4166 208.807 31.1128 208.807 26.271C208.807 20.981 209.851 16.3783 211.938 12.4631C214.026 8.5478 216.904 5.51423 220.573 3.36233C224.241 1.18055 228.461 0.0896606 233.233 0.0896606C238.303 0.0896606 242.613 1.28516 246.162 3.67615C249.711 6.06714 252.336 9.42948 254.036 13.7632C255.736 18.0968 256.332 23.1926 255.825 29.0506H221.9C222.28 31.9565 223.18 34.3176 224.599 36.1339C226.567 38.5847 229.445 39.81 233.233 39.81C235.619 39.81 237.662 39.287 239.362 38.241C241.062 37.1949 242.359 35.6856 243.254 33.713L255.423 37.2098C253.603 41.6332 250.725 45.0702 246.788 47.521C242.881 49.9718 238.602 51.1972 233.949 51.1972ZM241.42 13.9425C242.46 15.3583 243.158 17.3757 243.514 19.9947H222.22C222.694 17.7584 223.487 15.9204 224.599 14.4805C226.567 11.94 229.624 10.6698 233.77 10.6698C237.319 10.6698 239.869 11.7607 241.42 13.9425Z" fill="#3C43E6"/>
<path d="M152.115 2.11488C148.002 1.00067 140.101 1 137.744 1C138.54 1 139.434 1.04951 140.306 1.10528C142.985 1.33587 145.249 1.94526 147.096 2.93346C149.505 4.22243 151.372 5.85612 152.698 7.83454C154.053 9.81295 155.017 11.8813 155.589 14.0396C156.161 16.1679 156.507 18.1163 156.628 19.8849C156.628 19.8849 156.789 21.8474 156.807 23.5077C156.808 23.5934 156.809 23.6748 156.809 23.7518V23.7995C156.809 25.5119 156.926 30.0006 157.417 35.2776C157.533 36.5321 157.782 37.7451 158.147 38.9036C158.341 39.5075 158.567 40.1051 158.823 40.6967C160.867 45.3238 164.85 48.8578 169.666 50.3195C170.704 50.5855 171.828 50.8187 173.038 50.9428C173.33 50.9489 174.38 50.944 175.008 50.9411L175.252 50.94H175.254C175.506 50.9389 175.713 50.9396 175.809 50.94C180.512 50.9196 184.407 49.9452 187.494 47.8975C188.974 46.9252 190.278 45.8106 191.407 44.5536V49.5611H202.2V1H189.878V25.6403C189.878 28.6379 189.533 31.0659 188.843 32.9245C188.184 34.753 187.329 36.1469 186.28 37.1061C185.231 38.0354 184.106 38.6649 182.907 38.9946C181.708 39.3243 180.584 39.4892 179.534 39.4892C176.926 39.4892 174.902 38.9047 173.463 37.7356C172.054 36.5665 171.035 35.1127 170.405 33.3741C169.775 31.6355 169.401 29.9119 169.281 28.2032C169.161 26.4646 169.101 25.0408 169.101 23.9317C169.101 14.2622 162.901 5.68207 153.719 2.64521L152.115 2.11488Z" fill="#3C43E6"/>
</svg>
